<?xml version="1.0" encoding="UTF-8" standalone="no"?>
<!DOCTYPE svg PUBLIC "-//W3C//DTD SVG 1.1//EN"
 "http://www.w3.org/Graphics/SVG/1.1/DTD/svg11.dtd">
<!-- Generated by graphviz version 2.40.1 (20161225.0304)
 -->
<!-- Title: controllers_diagram Pages: 1 -->
<svg width="527pt" height="473pt"
 viewBox="0.00 0.00 527.38 473.00" xmlns="http://www.w3.org/2000/svg" xmlns:xlink="http://www.w3.org/1999/xlink">
<g id="graph0" class="graph" transform="scale(1 1) rotate(0) translate(4 469)">
<title>controllers_diagram</title>
<polygon fill="transparent" stroke="transparent" points="-4,4 -4,-469 523.3755,-469 523.3755,4 -4,4"/>
<!-- _diagram_info -->
<g id="node1" class="node">
<title>_diagram_info</title>
<text text-anchor="start" x="320" y="-106.6" font-family="Times,serif" font-size="13.00" fill="#000000">Controllers diagram</text>
<text text-anchor="start" x="320" y="-93.6" font-family="Times,serif" font-size="13.00" fill="#000000">Date: Jul 18 2018 &#45; 14:38</text>
<text text-anchor="start" x="320" y="-80.6" font-family="Times,serif" font-size="13.00" fill="#000000">Migration version: 20180610135203</text>
<text text-anchor="start" x="320" y="-67.6" font-family="Times,serif" font-size="13.00" fill="#000000">Generated by RailRoady 1.5.3</text>
<text text-anchor="start" x="320" y="-54.6" font-family="Times,serif" font-size="13.00" fill="#000000">http://railroady.prestonlee.com</text>
</g>
<!-- ApplicationController -->
<g id="node2" class="node">
<title>ApplicationController</title>
<path fill="none" stroke="#000000" d="M36,-156.7138C36,-156.7138 151.6416,-156.7138 151.6416,-156.7138 157.6416,-156.7138 163.6416,-162.7138 163.6416,-168.7138 163.6416,-168.7138 163.6416,-236.7138 163.6416,-236.7138 163.6416,-242.7138 157.6416,-248.7138 151.6416,-248.7138 151.6416,-248.7138 36,-248.7138 36,-248.7138 30,-248.7138 24,-242.7138 24,-236.7138 24,-236.7138 24,-168.7138 24,-168.7138 24,-162.7138 30,-156.7138 36,-156.7138"/>
<text text-anchor="middle" x="93.8208" y="-233.5138" font-family="Times,serif" font-size="14.00" fill="#000000">ApplicationController</text>
<polyline fill="none" stroke="#000000" points="24,-226.7138 163.6416,-226.7138 "/>
<polyline fill="none" stroke="#000000" points="24,-202.7138 163.6416,-202.7138 "/>
<polyline fill="none" stroke="#000000" points="24,-178.7138 163.6416,-178.7138 "/>
<text text-anchor="start" x="32" y="-163.5138" font-family="Times,serif" font-size="14.00" fill="#000000">_layout</text>
</g>
<!-- MepAudiosController -->
<g id="node3" class="node">
<title>MepAudiosController</title>
<path fill="none" stroke="#000000" d="M182.7435,-162.8648C182.7435,-162.8648 298.3988,-162.8648 298.3988,-162.8648 304.3988,-162.8648 310.3988,-168.8648 310.3988,-174.8648 310.3988,-174.8648 310.3988,-338.8648 310.3988,-338.8648 310.3988,-344.8648 304.3988,-350.8648 298.3988,-350.8648 298.3988,-350.8648 182.7435,-350.8648 182.7435,-350.8648 176.7435,-350.8648 170.7435,-344.8648 170.7435,-338.8648 170.7435,-338.8648 170.7435,-174.8648 170.7435,-174.8648 170.7435,-168.8648 176.7435,-162.8648 182.7435,-162.8648"/>
<text text-anchor="middle" x="240.5711" y="-335.6648" font-family="Times,serif" font-size="14.00" fill="#000000">MepAudiosController</text>
<polyline fill="none" stroke="#000000" points="170.7435,-328.8648 310.3988,-328.8648 "/>
<text text-anchor="start" x="178.7435" y="-313.6648" font-family="Times,serif" font-size="14.00" fill="#000000">index</text>
<text text-anchor="start" x="178.7435" y="-299.6648" font-family="Times,serif" font-size="14.00" fill="#000000">destroy</text>
<text text-anchor="start" x="178.7435" y="-285.6648" font-family="Times,serif" font-size="14.00" fill="#000000">edit</text>
<text text-anchor="start" x="178.7435" y="-271.6648" font-family="Times,serif" font-size="14.00" fill="#000000">create</text>
<text text-anchor="start" x="178.7435" y="-257.6648" font-family="Times,serif" font-size="14.00" fill="#000000">new</text>
<text text-anchor="start" x="178.7435" y="-243.6648" font-family="Times,serif" font-size="14.00" fill="#000000">show</text>
<text text-anchor="start" x="178.7435" y="-229.6648" font-family="Times,serif" font-size="14.00" fill="#000000">update</text>
<polyline fill="none" stroke="#000000" points="170.7435,-222.8648 310.3988,-222.8648 "/>
<polyline fill="none" stroke="#000000" points="170.7435,-198.8648 310.3988,-198.8648 "/>
<text text-anchor="start" x="178.7435" y="-183.6648" font-family="Times,serif" font-size="14.00" fill="#000000">_layout</text>
<text text-anchor="start" x="178.7435" y="-169.6648" font-family="Times,serif" font-size="14.00" fill="#000000">mep_audio_params</text>
</g>
<!-- ApplicationController&#45;&gt;MepAudiosController -->
<g id="edge1" class="edge">
<title>ApplicationController&#45;&gt;MepAudiosController</title>
<path fill="none" stroke="#000000" d="M163.7576,-228.5206C165.9723,-229.3378 168.1912,-230.1565 170.4061,-230.9739"/>
</g>
<!-- ProjectPartialsController -->
<g id="node4" class="node">
<title>ProjectPartialsController</title>
<path fill="none" stroke="#000000" d="M135.0615,-.5C135.0615,-.5 266.2549,-.5 266.2549,-.5 272.2549,-.5 278.2549,-6.5 278.2549,-12.5 278.2549,-12.5 278.2549,-92.5 278.2549,-92.5 278.2549,-98.5 272.2549,-104.5 266.2549,-104.5 266.2549,-104.5 135.0615,-104.5 135.0615,-104.5 129.0615,-104.5 123.0615,-98.5 123.0615,-92.5 123.0615,-92.5 123.0615,-12.5 123.0615,-12.5 123.0615,-6.5 129.0615,-.5 135.0615,-.5"/>
<text text-anchor="middle" x="200.6582" y="-89.3" font-family="Times,serif" font-size="14.00" fill="#000000">ProjectPartialsController</text>
<polyline fill="none" stroke="#000000" points="123.0615,-82.5 278.2549,-82.5 "/>
<text text-anchor="start" x="131.0615" y="-67.3" font-family="Times,serif" font-size="14.00" fill="#000000">index</text>
<text text-anchor="start" x="131.0615" y="-53.3" font-family="Times,serif" font-size="14.00" fill="#000000">show</text>
<polyline fill="none" stroke="#000000" points="123.0615,-46.5 278.2549,-46.5 "/>
<polyline fill="none" stroke="#000000" points="123.0615,-22.5 278.2549,-22.5 "/>
<text text-anchor="start" x="131.0615" y="-7.3" font-family="Times,serif" font-size="14.00" fill="#000000">_layout</text>
</g>
<!-- ApplicationController&#45;&gt;ProjectPartialsController -->
<g id="edge2" class="edge">
<title>ApplicationController&#45;&gt;ProjectPartialsController</title>
<path fill="none" stroke="#000000" d="M126.7473,-156.419C138.3964,-140.0403 151.5781,-121.5069 163.5505,-104.6735"/>
</g>
<!-- ProjectsController -->
<g id="node5" class="node">
<title>ProjectsController</title>
<path fill="none" stroke="#000000" d="M12,-360.5C12,-360.5 106.6484,-360.5 106.6484,-360.5 112.6484,-360.5 118.6484,-366.5 118.6484,-372.5 118.6484,-372.5 118.6484,-452.5 118.6484,-452.5 118.6484,-458.5 112.6484,-464.5 106.6484,-464.5 106.6484,-464.5 12,-464.5 12,-464.5 6,-464.5 0,-458.5 0,-452.5 0,-452.5 0,-372.5 0,-372.5 0,-366.5 6,-360.5 12,-360.5"/>
<text text-anchor="middle" x="59.3242" y="-449.3" font-family="Times,serif" font-size="14.00" fill="#000000">ProjectsController</text>
<polyline fill="none" stroke="#000000" points="0,-442.5 118.6484,-442.5 "/>
<text text-anchor="start" x="8" y="-427.3" font-family="Times,serif" font-size="14.00" fill="#000000">index</text>
<text text-anchor="start" x="8" y="-413.3" font-family="Times,serif" font-size="14.00" fill="#000000">show</text>
<polyline fill="none" stroke="#000000" points="0,-406.5 118.6484,-406.5 "/>
<polyline fill="none" stroke="#000000" points="0,-382.5 118.6484,-382.5 "/>
<text text-anchor="start" x="8" y="-367.3" font-family="Times,serif" font-size="14.00" fill="#000000">_layout</text>
</g>
</g>
</svg>
