<?xml version="1.0" encoding="UTF-8" standalone="no"?>
<!DOCTYPE svg PUBLIC "-//W3C//DTD SVG 1.1//EN"
 "http://www.w3.org/Graphics/SVG/1.1/DTD/svg11.dtd">
<!-- Generated by graphviz version 2.40.1 (20161225.0304)
 -->
<!-- Title: models_diagram Pages: 1 -->
<svg width="2344pt" height="1181pt"
 viewBox="0.00 0.00 2343.73 1181.00" xmlns="http://www.w3.org/2000/svg" xmlns:xlink="http://www.w3.org/1999/xlink">
<g id="graph0" class="graph" transform="scale(1 1) rotate(0) translate(4 1177)">
<title>models_diagram</title>
<polygon fill="transparent" stroke="transparent" points="-4,4 -4,-1177 2339.7349,-1177 2339.7349,4 -4,4"/>
<!-- _diagram_info -->
<g id="node1" class="node">
<title>_diagram_info</title>
<text text-anchor="start" x="841.8176" y="-969.6" font-family="Times,serif" font-size="13.00" fill="#000000">Models diagram</text>
<text text-anchor="start" x="841.8176" y="-956.6" font-family="Times,serif" font-size="13.00" fill="#000000">Date: Jul 18 2018 &#45; 14:38</text>
<text text-anchor="start" x="841.8176" y="-943.6" font-family="Times,serif" font-size="13.00" fill="#000000">Migration version: 20180610135203</text>
<text text-anchor="start" x="841.8176" y="-930.6" font-family="Times,serif" font-size="13.00" fill="#000000">Generated by RailRoady 1.5.3</text>
<text text-anchor="start" x="841.8176" y="-917.6" font-family="Times,serif" font-size="13.00" fill="#000000">http://railroady.prestonlee.com</text>
</g>
<!-- BsagAudioFault -->
<g id="node2" class="node">
<title>BsagAudioFault</title>
<path fill="none" stroke="#000000" d="M12,-494.5C12,-494.5 121.0107,-494.5 121.0107,-494.5 127.0107,-494.5 133.0107,-500.5 133.0107,-506.5 133.0107,-506.5 133.0107,-568.5 133.0107,-568.5 133.0107,-574.5 127.0107,-580.5 121.0107,-580.5 121.0107,-580.5 12,-580.5 12,-580.5 6,-580.5 0,-574.5 0,-568.5 0,-568.5 0,-506.5 0,-506.5 0,-500.5 6,-494.5 12,-494.5"/>
<text text-anchor="middle" x="66.5054" y="-565.3" font-family="Times,serif" font-size="14.00" fill="#000000">BsagAudioFault</text>
<polyline fill="none" stroke="#000000" points="0,-558.5 133.0107,-558.5 "/>
<text text-anchor="start" x="8" y="-543.3" font-family="Times,serif" font-size="14.00" fill="#000000">id :int(11)</text>
<text text-anchor="start" x="8" y="-529.3" font-family="Times,serif" font-size="14.00" fill="#000000">name :varchar(30)</text>
<text text-anchor="start" x="8" y="-515.3" font-family="Times,serif" font-size="14.00" fill="#000000">created_at :datetime</text>
<text text-anchor="start" x="8" y="-501.3" font-family="Times,serif" font-size="14.00" fill="#000000">updated_at :datetime</text>
</g>
<!-- BsagMepAudio -->
<g id="node7" class="node">
<title>BsagMepAudio</title>
<path fill="none" stroke="#000000" d="M490.2515,-.5C490.2515,-.5 698.7593,-.5 698.7593,-.5 704.7593,-.5 710.7593,-6.5 710.7593,-12.5 710.7593,-12.5 710.7593,-340.5 710.7593,-340.5 710.7593,-346.5 704.7593,-352.5 698.7593,-352.5 698.7593,-352.5 490.2515,-352.5 490.2515,-352.5 484.2515,-352.5 478.2515,-346.5 478.2515,-340.5 478.2515,-340.5 478.2515,-12.5 478.2515,-12.5 478.2515,-6.5 484.2515,-.5 490.2515,-.5"/>
<text text-anchor="middle" x="594.5054" y="-337.3" font-family="Times,serif" font-size="14.00" fill="#000000">BsagMepAudio</text>
<polyline fill="none" stroke="#000000" points="478.2515,-330.5 710.7593,-330.5 "/>
<text text-anchor="start" x="486.2515" y="-315.3" font-family="Times,serif" font-size="14.00" fill="#000000">updated_at :datetime</text>
<text text-anchor="start" x="486.2515" y="-301.3" font-family="Times,serif" font-size="14.00" fill="#000000">bsag_project_partial_id :int(11)</text>
<text text-anchor="start" x="486.2515" y="-287.3" font-family="Times,serif" font-size="14.00" fill="#000000">bsag_audio_type_id :int(11)</text>
<text text-anchor="start" x="486.2515" y="-273.3" font-family="Times,serif" font-size="14.00" fill="#000000">receiving_date :date</text>
<text text-anchor="start" x="486.2515" y="-259.3" font-family="Times,serif" font-size="14.00" fill="#000000">bsag_mep_version_id :int(11)</text>
<text text-anchor="start" x="486.2515" y="-245.3" font-family="Times,serif" font-size="14.00" fill="#000000">version_number :smallint(6)</text>
<text text-anchor="start" x="486.2515" y="-231.3" font-family="Times,serif" font-size="14.00" fill="#000000">version_name_ext :varchar(30)</text>
<text text-anchor="start" x="486.2515" y="-217.3" font-family="Times,serif" font-size="14.00" fill="#000000">bsag_audio_format_id :int(11)</text>
<text text-anchor="start" x="486.2515" y="-203.3" font-family="Times,serif" font-size="14.00" fill="#000000">bsag_audio_speed_id :int(11)</text>
<text text-anchor="start" x="486.2515" y="-189.3" font-family="Times,serif" font-size="14.00" fill="#000000">is_complete :tinyint(1)</text>
<text text-anchor="start" x="486.2515" y="-175.3" font-family="Times,serif" font-size="14.00" fill="#000000">is_complete_comment :varchar(255)</text>
<text text-anchor="start" x="486.2515" y="-161.3" font-family="Times,serif" font-size="14.00" fill="#000000">is_in_sync :tinyint(1)</text>
<text text-anchor="start" x="486.2515" y="-147.3" font-family="Times,serif" font-size="14.00" fill="#000000">is_in_sync_comment :varchar(255)</text>
<text text-anchor="start" x="486.2515" y="-133.3" font-family="Times,serif" font-size="14.00" fill="#000000">dbtp_max :decimal(3,1)</text>
<text text-anchor="start" x="486.2515" y="-119.3" font-family="Times,serif" font-size="14.00" fill="#000000">lra :decimal(3,1)</text>
<text text-anchor="start" x="486.2515" y="-105.3" font-family="Times,serif" font-size="14.00" fill="#000000">lufs :decimal(3,1)</text>
<text text-anchor="start" x="486.2515" y="-91.3" font-family="Times,serif" font-size="14.00" fill="#000000">bsag_channel_error_id :int(11)</text>
<text text-anchor="start" x="486.2515" y="-77.3" font-family="Times,serif" font-size="14.00" fill="#000000">channel_error_comment :varchar(255)</text>
<text text-anchor="start" x="486.2515" y="-63.3" font-family="Times,serif" font-size="14.00" fill="#000000">bsag_audio_fault_id :int(11)</text>
<text text-anchor="start" x="486.2515" y="-49.3" font-family="Times,serif" font-size="14.00" fill="#000000">audio_fault_comment :varchar(255)</text>
<text text-anchor="start" x="486.2515" y="-35.3" font-family="Times,serif" font-size="14.00" fill="#000000">bsag_mep_evaluation_id :int(11)</text>
<text text-anchor="start" x="486.2515" y="-21.3" font-family="Times,serif" font-size="14.00" fill="#000000">created_at :datetime</text>
<text text-anchor="start" x="486.2515" y="-7.3" font-family="Times,serif" font-size="14.00" fill="#000000">id :int(11)</text>
</g>
<!-- BsagAudioFault&#45;&gt;BsagMepAudio -->
<g id="edge1" class="edge">
<title>BsagAudioFault&#45;&gt;BsagMepAudio</title>
<path fill="none" stroke="#51702a" d="M86.0041,-486.7742C98.5644,-459.2977 117.1277,-426.304 141.5054,-403 234.788,-313.8259 370.0027,-252.4541 468.41,-216.3158"/>
<ellipse fill="none" stroke="#51702a" cx="84.2493" cy="-490.7115" rx="4" ry="4"/>
<polygon fill="#51702a" stroke="#51702a" points="468.4173,-216.3132 479.3529,-217.1266 473.1165,-214.6052 477.8157,-212.8972 477.8157,-212.8972 477.8157,-212.8972 473.1165,-214.6052 476.2785,-208.6679 468.4173,-216.3132 468.4173,-216.3132"/>
<text text-anchor="middle" x="206.333" y="-373.8" font-family="Times,serif" font-size="14.00" fill="#000000">mep_audios</text>
</g>
<!-- BsagAudioFormat -->
<g id="node3" class="node">
<title>BsagAudioFormat</title>
<path fill="none" stroke="#000000" d="M163,-494.5C163,-494.5 272.0107,-494.5 272.0107,-494.5 278.0107,-494.5 284.0107,-500.5 284.0107,-506.5 284.0107,-506.5 284.0107,-568.5 284.0107,-568.5 284.0107,-574.5 278.0107,-580.5 272.0107,-580.5 272.0107,-580.5 163,-580.5 163,-580.5 157,-580.5 151,-574.5 151,-568.5 151,-568.5 151,-506.5 151,-506.5 151,-500.5 157,-494.5 163,-494.5"/>
<text text-anchor="middle" x="217.5054" y="-565.3" font-family="Times,serif" font-size="14.00" fill="#000000">BsagAudioFormat</text>
<polyline fill="none" stroke="#000000" points="151,-558.5 284.0107,-558.5 "/>
<text text-anchor="start" x="159" y="-543.3" font-family="Times,serif" font-size="14.00" fill="#000000">id :int(11)</text>
<text text-anchor="start" x="159" y="-529.3" font-family="Times,serif" font-size="14.00" fill="#000000">name :varchar(10)</text>
<text text-anchor="start" x="159" y="-515.3" font-family="Times,serif" font-size="14.00" fill="#000000">created_at :datetime</text>
<text text-anchor="start" x="159" y="-501.3" font-family="Times,serif" font-size="14.00" fill="#000000">updated_at :datetime</text>
</g>
<!-- BsagAudioFormat&#45;&gt;BsagMepAudio -->
<g id="edge2" class="edge">
<title>BsagAudioFormat&#45;&gt;BsagMepAudio</title>
<path fill="none" stroke="#e5b23f" d="M239.4126,-486.92C252.4602,-460.2292 270.721,-427.9389 292.5054,-403 343.1543,-345.0167 410.9117,-292.5541 469.411,-252.755"/>
<ellipse fill="none" stroke="#e5b23f" cx="237.6044" cy="-490.6834" rx="4" ry="4"/>
<polygon fill="#e5b23f" stroke="#e5b23f" points="469.6836,-252.571 480.4896,-250.7054 473.8277,-249.7734 477.9717,-246.9757 477.9717,-246.9757 477.9717,-246.9757 473.8277,-249.7734 475.4539,-243.2461 469.6836,-252.571 469.6836,-252.571"/>
<text text-anchor="middle" x="354.333" y="-373.8" font-family="Times,serif" font-size="14.00" fill="#000000">mep_audios</text>
</g>
<!-- BsagAudioSpeed -->
<g id="node4" class="node">
<title>BsagAudioSpeed</title>
<path fill="none" stroke="#000000" d="M314,-494.5C314,-494.5 423.0107,-494.5 423.0107,-494.5 429.0107,-494.5 435.0107,-500.5 435.0107,-506.5 435.0107,-506.5 435.0107,-568.5 435.0107,-568.5 435.0107,-574.5 429.0107,-580.5 423.0107,-580.5 423.0107,-580.5 314,-580.5 314,-580.5 308,-580.5 302,-574.5 302,-568.5 302,-568.5 302,-506.5 302,-506.5 302,-500.5 308,-494.5 314,-494.5"/>
<text text-anchor="middle" x="368.5054" y="-565.3" font-family="Times,serif" font-size="14.00" fill="#000000">BsagAudioSpeed</text>
<polyline fill="none" stroke="#000000" points="302,-558.5 435.0107,-558.5 "/>
<text text-anchor="start" x="310" y="-543.3" font-family="Times,serif" font-size="14.00" fill="#000000">id :int(11)</text>
<text text-anchor="start" x="310" y="-529.3" font-family="Times,serif" font-size="14.00" fill="#000000">speed :decimal(5,3)</text>
<text text-anchor="start" x="310" y="-515.3" font-family="Times,serif" font-size="14.00" fill="#000000">created_at :datetime</text>
<text text-anchor="start" x="310" y="-501.3" font-family="Times,serif" font-size="14.00" fill="#000000">updated_at :datetime</text>
</g>
<!-- BsagAudioSpeed&#45;&gt;BsagMepAudio -->
<g id="edge3" class="edge">
<title>BsagAudioSpeed&#45;&gt;BsagMepAudio</title>
<path fill="none" stroke="#eb0fe2" d="M395.2875,-487.2619C409.1986,-461.7475 426.7538,-430.4247 443.5054,-403 452.7552,-387.8568 462.5399,-372.2833 472.5037,-356.7315"/>
<ellipse fill="none" stroke="#eb0fe2" cx="393.3744" cy="-490.7817" rx="4" ry="4"/>
<polygon fill="#eb0fe2" stroke="#eb0fe2" points="472.6472,-356.5082 481.8405,-350.5303 475.3512,-352.3024 478.0553,-348.0967 478.0553,-348.0967 478.0553,-348.0967 475.3512,-352.3024 474.2701,-345.663 472.6472,-356.5082 472.6472,-356.5082"/>
<text text-anchor="middle" x="497.333" y="-373.8" font-family="Times,serif" font-size="14.00" fill="#000000">mep_audios</text>
</g>
<!-- BsagAudioType -->
<g id="node5" class="node">
<title>BsagAudioType</title>
<path fill="none" stroke="#000000" d="M465,-494.5C465,-494.5 574.0107,-494.5 574.0107,-494.5 580.0107,-494.5 586.0107,-500.5 586.0107,-506.5 586.0107,-506.5 586.0107,-568.5 586.0107,-568.5 586.0107,-574.5 580.0107,-580.5 574.0107,-580.5 574.0107,-580.5 465,-580.5 465,-580.5 459,-580.5 453,-574.5 453,-568.5 453,-568.5 453,-506.5 453,-506.5 453,-500.5 459,-494.5 465,-494.5"/>
<text text-anchor="middle" x="519.5054" y="-565.3" font-family="Times,serif" font-size="14.00" fill="#000000">BsagAudioType</text>
<polyline fill="none" stroke="#000000" points="453,-558.5 586.0107,-558.5 "/>
<text text-anchor="start" x="461" y="-543.3" font-family="Times,serif" font-size="14.00" fill="#000000">id :int(11)</text>
<text text-anchor="start" x="461" y="-529.3" font-family="Times,serif" font-size="14.00" fill="#000000">name :varchar(20)</text>
<text text-anchor="start" x="461" y="-515.3" font-family="Times,serif" font-size="14.00" fill="#000000">created_at :datetime</text>
<text text-anchor="start" x="461" y="-501.3" font-family="Times,serif" font-size="14.00" fill="#000000">updated_at :datetime</text>
</g>
<!-- BsagAudioType&#45;&gt;BsagMepAudio -->
<g id="edge4" class="edge">
<title>BsagAudioType&#45;&gt;BsagMepAudio</title>
<path fill="none" stroke="#0d65c2" d="M530.1853,-486.0941C537.0206,-453.1932 546.3497,-408.2891 555.7822,-362.8877"/>
<ellipse fill="none" stroke="#0d65c2" cx="529.2913" cy="-490.3972" rx="4" ry="4"/>
<polygon fill="#0d65c2" stroke="#0d65c2" points="555.825,-362.6811 562.2651,-353.8056 556.8421,-357.7856 557.8592,-352.8902 557.8592,-352.8902 557.8592,-352.8902 556.8421,-357.7856 553.4533,-351.9748 555.825,-362.6811 555.825,-362.6811"/>
<text text-anchor="middle" x="587.333" y="-373.8" font-family="Times,serif" font-size="14.00" fill="#000000">mep_audios</text>
</g>
<!-- BsagChannelError -->
<g id="node6" class="node">
<title>BsagChannelError</title>
<path fill="none" stroke="#000000" d="M616,-494.5C616,-494.5 725.0107,-494.5 725.0107,-494.5 731.0107,-494.5 737.0107,-500.5 737.0107,-506.5 737.0107,-506.5 737.0107,-568.5 737.0107,-568.5 737.0107,-574.5 731.0107,-580.5 725.0107,-580.5 725.0107,-580.5 616,-580.5 616,-580.5 610,-580.5 604,-574.5 604,-568.5 604,-568.5 604,-506.5 604,-506.5 604,-500.5 610,-494.5 616,-494.5"/>
<text text-anchor="middle" x="670.5054" y="-565.3" font-family="Times,serif" font-size="14.00" fill="#000000">BsagChannelError</text>
<polyline fill="none" stroke="#000000" points="604,-558.5 737.0107,-558.5 "/>
<text text-anchor="start" x="612" y="-543.3" font-family="Times,serif" font-size="14.00" fill="#000000">id :int(11)</text>
<text text-anchor="start" x="612" y="-529.3" font-family="Times,serif" font-size="14.00" fill="#000000">name :varchar(20)</text>
<text text-anchor="start" x="612" y="-515.3" font-family="Times,serif" font-size="14.00" fill="#000000">created_at :datetime</text>
<text text-anchor="start" x="612" y="-501.3" font-family="Times,serif" font-size="14.00" fill="#000000">updated_at :datetime</text>
</g>
<!-- BsagChannelError&#45;&gt;BsagMepAudio -->
<g id="edge5" class="edge">
<title>BsagChannelError&#45;&gt;BsagMepAudio</title>
<path fill="none" stroke="#60c20c" d="M659.6831,-486.0941C652.7566,-453.1932 643.3031,-408.2891 633.7449,-362.8877"/>
<ellipse fill="none" stroke="#60c20c" cx="660.5894" cy="-490.3993" rx="4" ry="4"/>
<polygon fill="#60c20c" stroke="#60c20c" points="633.7003,-362.6757 636.0436,-351.9631 632.6702,-357.7829 631.6401,-352.8902 631.6401,-352.8902 631.6401,-352.8902 632.6702,-357.7829 627.2367,-353.8173 633.7003,-362.6757 633.7003,-362.6757"/>
<text text-anchor="middle" x="671.333" y="-373.8" font-family="Times,serif" font-size="14.00" fill="#000000">mep_audios</text>
</g>
<!-- BsagMepEvaluation -->
<g id="node8" class="node">
<title>BsagMepEvaluation</title>
<path fill="none" stroke="#000000" d="M767,-494.5C767,-494.5 876.0107,-494.5 876.0107,-494.5 882.0107,-494.5 888.0107,-500.5 888.0107,-506.5 888.0107,-506.5 888.0107,-568.5 888.0107,-568.5 888.0107,-574.5 882.0107,-580.5 876.0107,-580.5 876.0107,-580.5 767,-580.5 767,-580.5 761,-580.5 755,-574.5 755,-568.5 755,-568.5 755,-506.5 755,-506.5 755,-500.5 761,-494.5 767,-494.5"/>
<text text-anchor="middle" x="821.5054" y="-565.3" font-family="Times,serif" font-size="14.00" fill="#000000">BsagMepEvaluation</text>
<polyline fill="none" stroke="#000000" points="755,-558.5 888.0107,-558.5 "/>
<text text-anchor="start" x="763" y="-543.3" font-family="Times,serif" font-size="14.00" fill="#000000">id :int(11)</text>
<text text-anchor="start" x="763" y="-529.3" font-family="Times,serif" font-size="14.00" fill="#000000">name :varchar(20)</text>
<text text-anchor="start" x="763" y="-515.3" font-family="Times,serif" font-size="14.00" fill="#000000">created_at :datetime</text>
<text text-anchor="start" x="763" y="-501.3" font-family="Times,serif" font-size="14.00" fill="#000000">updated_at :datetime</text>
</g>
<!-- BsagMepEvaluation&#45;&gt;BsagMepAudio -->
<g id="edge6" class="edge">
<title>BsagMepEvaluation&#45;&gt;BsagMepAudio</title>
<path fill="none" stroke="#7c93f9" d="M794.7585,-487.2403C780.8565,-461.7203 763.2988,-430.3991 746.5054,-403 736.8641,-387.2698 726.637,-371.0817 716.2257,-354.9394"/>
<ellipse fill="none" stroke="#7c93f9" cx="796.6703" cy="-490.7611" rx="4" ry="4"/>
<polygon fill="#7c93f9" stroke="#7c93f9" points="716.2001,-354.8998 714.5443,-344.0597 713.4833,-350.7023 710.7666,-346.5048 710.7666,-346.5048 710.7666,-346.5048 713.4833,-350.7023 706.9888,-348.9499 716.2001,-354.8998 716.2001,-354.8998"/>
<text text-anchor="middle" x="768.333" y="-373.8" font-family="Times,serif" font-size="14.00" fill="#000000">mep_audios</text>
</g>
<!-- BsagMepVersion -->
<g id="node9" class="node">
<title>BsagMepVersion</title>
<path fill="none" stroke="#000000" d="M918,-494.5C918,-494.5 1027.0107,-494.5 1027.0107,-494.5 1033.0107,-494.5 1039.0107,-500.5 1039.0107,-506.5 1039.0107,-506.5 1039.0107,-568.5 1039.0107,-568.5 1039.0107,-574.5 1033.0107,-580.5 1027.0107,-580.5 1027.0107,-580.5 918,-580.5 918,-580.5 912,-580.5 906,-574.5 906,-568.5 906,-568.5 906,-506.5 906,-506.5 906,-500.5 912,-494.5 918,-494.5"/>
<text text-anchor="middle" x="972.5054" y="-565.3" font-family="Times,serif" font-size="14.00" fill="#000000">BsagMepVersion</text>
<polyline fill="none" stroke="#000000" points="906,-558.5 1039.0107,-558.5 "/>
<text text-anchor="start" x="914" y="-543.3" font-family="Times,serif" font-size="14.00" fill="#000000">id :int(11)</text>
<text text-anchor="start" x="914" y="-529.3" font-family="Times,serif" font-size="14.00" fill="#000000">name :varchar(10)</text>
<text text-anchor="start" x="914" y="-515.3" font-family="Times,serif" font-size="14.00" fill="#000000">created_at :datetime</text>
<text text-anchor="start" x="914" y="-501.3" font-family="Times,serif" font-size="14.00" fill="#000000">updated_at :datetime</text>
</g>
<!-- BsagMepVersion&#45;&gt;BsagMepAudio -->
<g id="edge7" class="edge">
<title>BsagMepVersion&#45;&gt;BsagMepAudio</title>
<path fill="none" stroke="#013ce2" d="M950.614,-486.9061C937.571,-460.2114 919.3095,-427.9217 897.5054,-403 846.5999,-344.8163 778.4466,-292.2518 719.6694,-252.4404"/>
<ellipse fill="none" stroke="#013ce2" cx="952.4215" cy="-490.6705" rx="4" ry="4"/>
<polygon fill="#013ce2" stroke="#013ce2" points="719.3683,-252.2381 713.5787,-242.9251 715.2185,-249.4491 711.0686,-246.66 711.0686,-246.66 711.0686,-246.66 715.2185,-249.4491 708.5584,-250.3949 719.3683,-252.2381 719.3683,-252.2381"/>
<text text-anchor="middle" x="910.333" y="-373.8" font-family="Times,serif" font-size="14.00" fill="#000000">mep_audios</text>
</g>
<!-- BsagProduct -->
<g id="node10" class="node">
<title>BsagProduct</title>
<path fill="none" stroke="#000000" d="M1294.4639,-869.5C1294.4639,-869.5 1450.5469,-869.5 1450.5469,-869.5 1456.5469,-869.5 1462.5469,-875.5 1462.5469,-881.5 1462.5469,-881.5 1462.5469,-1013.5 1462.5469,-1013.5 1462.5469,-1019.5 1456.5469,-1025.5 1450.5469,-1025.5 1450.5469,-1025.5 1294.4639,-1025.5 1294.4639,-1025.5 1288.4639,-1025.5 1282.4639,-1019.5 1282.4639,-1013.5 1282.4639,-1013.5 1282.4639,-881.5 1282.4639,-881.5 1282.4639,-875.5 1288.4639,-869.5 1294.4639,-869.5"/>
<text text-anchor="middle" x="1372.5054" y="-1010.3" font-family="Times,serif" font-size="14.00" fill="#000000">BsagProduct</text>
<polyline fill="none" stroke="#000000" points="1282.4639,-1003.5 1462.5469,-1003.5 "/>
<text text-anchor="start" x="1290.4639" y="-988.3" font-family="Times,serif" font-size="14.00" fill="#000000">updated_at :datetime</text>
<text text-anchor="start" x="1290.4639" y="-974.3" font-family="Times,serif" font-size="14.00" fill="#000000">code :varchar(10)</text>
<text text-anchor="start" x="1290.4639" y="-960.3" font-family="Times,serif" font-size="14.00" fill="#000000">name :varchar(30)</text>
<text text-anchor="start" x="1290.4639" y="-946.3" font-family="Times,serif" font-size="14.00" fill="#000000">short_name :varchar(10)</text>
<text text-anchor="start" x="1290.4639" y="-932.3" font-family="Times,serif" font-size="14.00" fill="#000000">segment :varchar(20)</text>
<text text-anchor="start" x="1290.4639" y="-918.3" font-family="Times,serif" font-size="14.00" fill="#000000">category :varchar(20)</text>
<text text-anchor="start" x="1290.4639" y="-904.3" font-family="Times,serif" font-size="14.00" fill="#000000">is_active :tinyint(1) unsigned</text>
<text text-anchor="start" x="1290.4639" y="-890.3" font-family="Times,serif" font-size="14.00" fill="#000000">created_at :datetime</text>
<text text-anchor="start" x="1290.4639" y="-876.3" font-family="Times,serif" font-size="14.00" fill="#000000">id :smallint(5) unsigned</text>
</g>
<!-- BsagProductCategory -->
<g id="node11" class="node">
<title>BsagProductCategory</title>
<path fill="none" stroke="#000000" d="M1492.4639,-897.5C1492.4639,-897.5 1648.5469,-897.5 1648.5469,-897.5 1654.5469,-897.5 1660.5469,-903.5 1660.5469,-909.5 1660.5469,-909.5 1660.5469,-985.5 1660.5469,-985.5 1660.5469,-991.5 1654.5469,-997.5 1648.5469,-997.5 1648.5469,-997.5 1492.4639,-997.5 1492.4639,-997.5 1486.4639,-997.5 1480.4639,-991.5 1480.4639,-985.5 1480.4639,-985.5 1480.4639,-909.5 1480.4639,-909.5 1480.4639,-903.5 1486.4639,-897.5 1492.4639,-897.5"/>
<text text-anchor="middle" x="1570.5054" y="-982.3" font-family="Times,serif" font-size="14.00" fill="#000000">BsagProductCategory</text>
<polyline fill="none" stroke="#000000" points="1480.4639,-975.5 1660.5469,-975.5 "/>
<text text-anchor="start" x="1488.4639" y="-960.3" font-family="Times,serif" font-size="14.00" fill="#000000">id :smallint(5) unsigned</text>
<text text-anchor="start" x="1488.4639" y="-946.3" font-family="Times,serif" font-size="14.00" fill="#000000">name :varchar(20)</text>
<text text-anchor="start" x="1488.4639" y="-932.3" font-family="Times,serif" font-size="14.00" fill="#000000">is_active :tinyint(1) unsigned</text>
<text text-anchor="start" x="1488.4639" y="-918.3" font-family="Times,serif" font-size="14.00" fill="#000000">created_at :datetime</text>
<text text-anchor="start" x="1488.4639" y="-904.3" font-family="Times,serif" font-size="14.00" fill="#000000">updated_at :datetime</text>
</g>
<!-- BsagProductVariation -->
<g id="node12" class="node">
<title>BsagProductVariation</title>
<path fill="none" stroke="#000000" d="M1690.1982,-883.5C1690.1982,-883.5 1896.8125,-883.5 1896.8125,-883.5 1902.8125,-883.5 1908.8125,-889.5 1908.8125,-895.5 1908.8125,-895.5 1908.8125,-999.5 1908.8125,-999.5 1908.8125,-1005.5 1902.8125,-1011.5 1896.8125,-1011.5 1896.8125,-1011.5 1690.1982,-1011.5 1690.1982,-1011.5 1684.1982,-1011.5 1678.1982,-1005.5 1678.1982,-999.5 1678.1982,-999.5 1678.1982,-895.5 1678.1982,-895.5 1678.1982,-889.5 1684.1982,-883.5 1690.1982,-883.5"/>
<text text-anchor="middle" x="1793.5054" y="-996.3" font-family="Times,serif" font-size="14.00" fill="#000000">BsagProductVariation</text>
<polyline fill="none" stroke="#000000" points="1678.1982,-989.5 1908.8125,-989.5 "/>
<text text-anchor="start" x="1686.1982" y="-974.3" font-family="Times,serif" font-size="14.00" fill="#000000">needs_calculation :tinyint(1) unsigned</text>
<text text-anchor="start" x="1686.1982" y="-960.3" font-family="Times,serif" font-size="14.00" fill="#000000">product_id :smallint(6)</text>
<text text-anchor="start" x="1686.1982" y="-946.3" font-family="Times,serif" font-size="14.00" fill="#000000">name :varchar(20)</text>
<text text-anchor="start" x="1686.1982" y="-932.3" font-family="Times,serif" font-size="14.00" fill="#000000">id :smallint(5) unsigned</text>
<text text-anchor="start" x="1686.1982" y="-918.3" font-family="Times,serif" font-size="14.00" fill="#000000">is_active :tinyint(1) unsigned</text>
<text text-anchor="start" x="1686.1982" y="-904.3" font-family="Times,serif" font-size="14.00" fill="#000000">created_at :datetime</text>
<text text-anchor="start" x="1686.1982" y="-890.3" font-family="Times,serif" font-size="14.00" fill="#000000">updated_at :datetime</text>
</g>
<!-- BsagProjectPartial -->
<g id="node13" class="node">
<title>BsagProjectPartial</title>
<path fill="none" stroke="#000000" d="M1069.2861,-403.5C1069.2861,-403.5 1253.7246,-403.5 1253.7246,-403.5 1259.7246,-403.5 1265.7246,-409.5 1265.7246,-415.5 1265.7246,-415.5 1265.7246,-659.5 1265.7246,-659.5 1265.7246,-665.5 1259.7246,-671.5 1253.7246,-671.5 1253.7246,-671.5 1069.2861,-671.5 1069.2861,-671.5 1063.2861,-671.5 1057.2861,-665.5 1057.2861,-659.5 1057.2861,-659.5 1057.2861,-415.5 1057.2861,-415.5 1057.2861,-409.5 1063.2861,-403.5 1069.2861,-403.5"/>
<text text-anchor="middle" x="1161.5054" y="-656.3" font-family="Times,serif" font-size="14.00" fill="#000000">BsagProjectPartial</text>
<polyline fill="none" stroke="#000000" points="1057.2861,-649.5 1265.7246,-649.5 "/>
<text text-anchor="start" x="1065.2861" y="-634.3" font-family="Times,serif" font-size="14.00" fill="#000000">updated_at :datetime</text>
<text text-anchor="start" x="1065.2861" y="-620.3" font-family="Times,serif" font-size="14.00" fill="#000000">project_id :int(10) unsigned</text>
<text text-anchor="start" x="1065.2861" y="-606.3" font-family="Times,serif" font-size="14.00" fill="#000000">number :smallint(5) unsigned</text>
<text text-anchor="start" x="1065.2861" y="-592.3" font-family="Times,serif" font-size="14.00" fill="#000000">production_code :varchar(16)</text>
<text text-anchor="start" x="1065.2861" y="-578.3" font-family="Times,serif" font-size="14.00" fill="#000000">title :varchar(255)</text>
<text text-anchor="start" x="1065.2861" y="-564.3" font-family="Times,serif" font-size="14.00" fill="#000000">title_localized1 :varchar(255)</text>
<text text-anchor="start" x="1065.2861" y="-550.3" font-family="Times,serif" font-size="14.00" fill="#000000">title_localized2 :varchar(255)</text>
<text text-anchor="start" x="1065.2861" y="-536.3" font-family="Times,serif" font-size="14.00" fill="#000000">title_localized3 :varchar(255)</text>
<text text-anchor="start" x="1065.2861" y="-522.3" font-family="Times,serif" font-size="14.00" fill="#000000">synopsis :varchar(2000)</text>
<text text-anchor="start" x="1065.2861" y="-508.3" font-family="Times,serif" font-size="14.00" fill="#000000">synopsis_localized :varchar(2000)</text>
<text text-anchor="start" x="1065.2861" y="-494.3" font-family="Times,serif" font-size="14.00" fill="#000000">notes :varchar(2000)</text>
<text text-anchor="start" x="1065.2861" y="-480.3" font-family="Times,serif" font-size="14.00" fill="#000000">imdb_id :varchar(10)</text>
<text text-anchor="start" x="1065.2861" y="-466.3" font-family="Times,serif" font-size="14.00" fill="#000000">poster_url :varchar(500)</text>
<text text-anchor="start" x="1065.2861" y="-452.3" font-family="Times,serif" font-size="14.00" fill="#000000">poster_file_name :varchar(20)</text>
<text text-anchor="start" x="1065.2861" y="-438.3" font-family="Times,serif" font-size="14.00" fill="#000000">is_active :tinyint(1) unsigned</text>
<text text-anchor="start" x="1065.2861" y="-424.3" font-family="Times,serif" font-size="14.00" fill="#000000">created_at :datetime</text>
<text text-anchor="start" x="1065.2861" y="-410.3" font-family="Times,serif" font-size="14.00" fill="#000000">id :int(10)</text>
</g>
<!-- BsagProjectPartial&#45;&gt;BsagMepAudio -->
<g id="edge8" class="edge">
<title>BsagProjectPartial&#45;&gt;BsagMepAudio</title>
<path fill="none" stroke="#9dd099" d="M1050.6572,-404.7143C1049.9413,-404.1378 1049.224,-403.5663 1048.5054,-403 948.4089,-324.1196 816.4418,-262.0534 720.6003,-222.9911"/>
<ellipse fill="none" stroke="#9dd099" cx="1053.9837" cy="-407.4768" rx="4" ry="4"/>
<polygon fill="#9dd099" stroke="#9dd099" points="720.418,-222.9174 712.8368,-214.9943 715.7832,-221.0415 711.1485,-219.1656 711.1485,-219.1656 711.1485,-219.1656 715.7832,-221.0415 709.4601,-223.3369 720.418,-222.9174 720.418,-222.9174"/>
<text text-anchor="middle" x="1049.333" y="-373.8" font-family="Times,serif" font-size="14.00" fill="#000000">mep_audios</text>
</g>
<!-- BsagProjectPartialVersion -->
<g id="node14" class="node">
<title>BsagProjectPartialVersion</title>
<path fill="none" stroke="#000000" d="M1939.3086,-792.5C1939.3086,-792.5 2125.7021,-792.5 2125.7021,-792.5 2131.7021,-792.5 2137.7021,-798.5 2137.7021,-804.5 2137.7021,-804.5 2137.7021,-1090.5 2137.7021,-1090.5 2137.7021,-1096.5 2131.7021,-1102.5 2125.7021,-1102.5 2125.7021,-1102.5 1939.3086,-1102.5 1939.3086,-1102.5 1933.3086,-1102.5 1927.3086,-1096.5 1927.3086,-1090.5 1927.3086,-1090.5 1927.3086,-804.5 1927.3086,-804.5 1927.3086,-798.5 1933.3086,-792.5 1939.3086,-792.5"/>
<text text-anchor="middle" x="2032.5054" y="-1087.3" font-family="Times,serif" font-size="14.00" fill="#000000">BsagProjectPartialVersion</text>
<polyline fill="none" stroke="#000000" points="1927.3086,-1080.5 2137.7021,-1080.5 "/>
<text text-anchor="start" x="1935.3086" y="-1065.3" font-family="Times,serif" font-size="14.00" fill="#000000">updated_at :datetime</text>
<text text-anchor="start" x="1935.3086" y="-1051.3" font-family="Times,serif" font-size="14.00" fill="#000000">project_id :int(10) unsigned</text>
<text text-anchor="start" x="1935.3086" y="-1037.3" font-family="Times,serif" font-size="14.00" fill="#000000">partial_id :int(10) unsigned</text>
<text text-anchor="start" x="1935.3086" y="-1023.3" font-family="Times,serif" font-size="14.00" fill="#000000">version_id :smallint(5) unsigned</text>
<text text-anchor="start" x="1935.3086" y="-1009.3" font-family="Times,serif" font-size="14.00" fill="#000000">guid :varchar(100)</text>
<text text-anchor="start" x="1935.3086" y="-995.3" font-family="Times,serif" font-size="14.00" fill="#000000">title :varchar(255)</text>
<text text-anchor="start" x="1935.3086" y="-981.3" font-family="Times,serif" font-size="14.00" fill="#000000">notes :varchar(2000)</text>
<text text-anchor="start" x="1935.3086" y="-967.3" font-family="Times,serif" font-size="14.00" fill="#000000">duration :smallint(5) unsigned</text>
<text text-anchor="start" x="1935.3086" y="-953.3" font-family="Times,serif" font-size="14.00" fill="#000000">duration_in_seconds :decimal(6,3)</text>
<text text-anchor="start" x="1935.3086" y="-939.3" font-family="Times,serif" font-size="14.00" fill="#000000">offset_in_seconds :decimal(6,3)</text>
<text text-anchor="start" x="1935.3086" y="-925.3" font-family="Times,serif" font-size="14.00" fill="#000000">framerate :float(4,2)</text>
<text text-anchor="start" x="1935.3086" y="-911.3" font-family="Times,serif" font-size="14.00" fill="#000000">word_count_source :int(11)</text>
<text text-anchor="start" x="1935.3086" y="-897.3" font-family="Times,serif" font-size="14.00" fill="#000000">word_count_localized :int(11)</text>
<text text-anchor="start" x="1935.3086" y="-883.3" font-family="Times,serif" font-size="14.00" fill="#000000">take_count :int(11)</text>
<text text-anchor="start" x="1935.3086" y="-869.3" font-family="Times,serif" font-size="14.00" fill="#000000">talk_time :float(6,2)</text>
<text text-anchor="start" x="1935.3086" y="-855.3" font-family="Times,serif" font-size="14.00" fill="#000000">video_asset_name :varchar(200)</text>
<text text-anchor="start" x="1935.3086" y="-841.3" font-family="Times,serif" font-size="14.00" fill="#000000">video_asset_poster :varchar(200)</text>
<text text-anchor="start" x="1935.3086" y="-827.3" font-family="Times,serif" font-size="14.00" fill="#000000">is_active :tinyint(1) unsigned</text>
<text text-anchor="start" x="1935.3086" y="-813.3" font-family="Times,serif" font-size="14.00" fill="#000000">created_at :datetime</text>
<text text-anchor="start" x="1935.3086" y="-799.3" font-family="Times,serif" font-size="14.00" fill="#000000">id :int(10) unsigned</text>
</g>
<!-- Tblclient -->
<g id="node15" class="node">
<title>Tblclient</title>
<path fill="none" stroke="#000000" d="M2167.2759,-736.5C2167.2759,-736.5 2323.7349,-736.5 2323.7349,-736.5 2329.7349,-736.5 2335.7349,-742.5 2335.7349,-748.5 2335.7349,-748.5 2335.7349,-1146.5 2335.7349,-1146.5 2335.7349,-1152.5 2329.7349,-1158.5 2323.7349,-1158.5 2323.7349,-1158.5 2167.2759,-1158.5 2167.2759,-1158.5 2161.2759,-1158.5 2155.2759,-1152.5 2155.2759,-1146.5 2155.2759,-1146.5 2155.2759,-748.5 2155.2759,-748.5 2155.2759,-742.5 2161.2759,-736.5 2167.2759,-736.5"/>
<text text-anchor="middle" x="2245.5054" y="-1143.3" font-family="Times,serif" font-size="14.00" fill="#000000">Tblclient</text>
<polyline fill="none" stroke="#000000" points="2155.2759,-1136.5 2335.7349,-1136.5 "/>
<text text-anchor="start" x="2163.2759" y="-1121.3" font-family="Times,serif" font-size="14.00" fill="#000000">updated_at :datetime</text>
<text text-anchor="start" x="2163.2759" y="-1107.3" font-family="Times,serif" font-size="14.00" fill="#000000">sage_id :int(11)</text>
<text text-anchor="start" x="2163.2759" y="-1093.3" font-family="Times,serif" font-size="14.00" fill="#000000">bank_account_id :smallint(6)</text>
<text text-anchor="start" x="2163.2759" y="-1079.3" font-family="Times,serif" font-size="14.00" fill="#000000">Name :varchar(150)</text>
<text text-anchor="start" x="2163.2759" y="-1065.3" font-family="Times,serif" font-size="14.00" fill="#000000">Manager :int(11)</text>
<text text-anchor="start" x="2163.2759" y="-1051.3" font-family="Times,serif" font-size="14.00" fill="#000000">Phone1 :varchar(30)</text>
<text text-anchor="start" x="2163.2759" y="-1037.3" font-family="Times,serif" font-size="14.00" fill="#000000">Phone2 :varchar(30)</text>
<text text-anchor="start" x="2163.2759" y="-1023.3" font-family="Times,serif" font-size="14.00" fill="#000000">Phone3 :varchar(30)</text>
<text text-anchor="start" x="2163.2759" y="-1009.3" font-family="Times,serif" font-size="14.00" fill="#000000">FAX :varchar(30)</text>
<text text-anchor="start" x="2163.2759" y="-995.3" font-family="Times,serif" font-size="14.00" fill="#000000">Address1 :varchar(255)</text>
<text text-anchor="start" x="2163.2759" y="-981.3" font-family="Times,serif" font-size="14.00" fill="#000000">Address2 :varchar(255)</text>
<text text-anchor="start" x="2163.2759" y="-967.3" font-family="Times,serif" font-size="14.00" fill="#000000">City :varchar(30)</text>
<text text-anchor="start" x="2163.2759" y="-953.3" font-family="Times,serif" font-size="14.00" fill="#000000">State :varchar(30)</text>
<text text-anchor="start" x="2163.2759" y="-939.3" font-family="Times,serif" font-size="14.00" fill="#000000">Country :varchar(50)</text>
<text text-anchor="start" x="2163.2759" y="-925.3" font-family="Times,serif" font-size="14.00" fill="#000000">Postcode :varchar(11)</text>
<text text-anchor="start" x="2163.2759" y="-911.3" font-family="Times,serif" font-size="14.00" fill="#000000">URL :varchar(255)</text>
<text text-anchor="start" x="2163.2759" y="-897.3" font-family="Times,serif" font-size="14.00" fill="#000000">Description :text</text>
<text text-anchor="start" x="2163.2759" y="-883.3" font-family="Times,serif" font-size="14.00" fill="#000000">Archived :tinyint(1)</text>
<text text-anchor="start" x="2163.2759" y="-869.3" font-family="Times,serif" font-size="14.00" fill="#000000">ContactName :varchar(255)</text>
<text text-anchor="start" x="2163.2759" y="-855.3" font-family="Times,serif" font-size="14.00" fill="#000000">ContactEmail :varchar(255)</text>
<text text-anchor="start" x="2163.2759" y="-841.3" font-family="Times,serif" font-size="14.00" fill="#000000">Colour :varchar(7)</text>
<text text-anchor="start" x="2163.2759" y="-827.3" font-family="Times,serif" font-size="14.00" fill="#000000">language :varchar(5)</text>
<text text-anchor="start" x="2163.2759" y="-813.3" font-family="Times,serif" font-size="14.00" fill="#000000">debtor_id :int(11)</text>
<text text-anchor="start" x="2163.2759" y="-799.3" font-family="Times,serif" font-size="14.00" fill="#000000">ustid :varchar(20)</text>
<text text-anchor="start" x="2163.2759" y="-785.3" font-family="Times,serif" font-size="14.00" fill="#000000">email_global :varchar(50)</text>
<text text-anchor="start" x="2163.2759" y="-771.3" font-family="Times,serif" font-size="14.00" fill="#000000">notes :varchar(200)</text>
<text text-anchor="start" x="2163.2759" y="-757.3" font-family="Times,serif" font-size="14.00" fill="#000000">created_at :datetime</text>
<text text-anchor="start" x="2163.2759" y="-743.3" font-family="Times,serif" font-size="14.00" fill="#000000">ID :int(11)</text>
</g>
<!-- Tblproject -->
<g id="node16" class="node">
<title>Tblproject</title>
<path fill="none" stroke="#000000" d="M1071.0259,-722.5C1071.0259,-722.5 1251.9849,-722.5 1251.9849,-722.5 1257.9849,-722.5 1263.9849,-728.5 1263.9849,-734.5 1263.9849,-734.5 1263.9849,-1160.5 1263.9849,-1160.5 1263.9849,-1166.5 1257.9849,-1172.5 1251.9849,-1172.5 1251.9849,-1172.5 1071.0259,-1172.5 1071.0259,-1172.5 1065.0259,-1172.5 1059.0259,-1166.5 1059.0259,-1160.5 1059.0259,-1160.5 1059.0259,-734.5 1059.0259,-734.5 1059.0259,-728.5 1065.0259,-722.5 1071.0259,-722.5"/>
<text text-anchor="middle" x="1161.5054" y="-1157.3" font-family="Times,serif" font-size="14.00" fill="#000000">Tblproject</text>
<polyline fill="none" stroke="#000000" points="1059.0259,-1150.5 1263.9849,-1150.5 "/>
<text text-anchor="start" x="1067.0259" y="-1135.3" font-family="Times,serif" font-size="14.00" fill="#000000">updated_at :datetime</text>
<text text-anchor="start" x="1067.0259" y="-1121.3" font-family="Times,serif" font-size="14.00" fill="#000000">ClientID :int(11)</text>
<text text-anchor="start" x="1067.0259" y="-1107.3" font-family="Times,serif" font-size="14.00" fill="#000000">ProjectID :varchar(255)</text>
<text text-anchor="start" x="1067.0259" y="-1093.3" font-family="Times,serif" font-size="14.00" fill="#000000">Name :varchar(255)</text>
<text text-anchor="start" x="1067.0259" y="-1079.3" font-family="Times,serif" font-size="14.00" fill="#000000">Owner :int(11)</text>
<text text-anchor="start" x="1067.0259" y="-1065.3" font-family="Times,serif" font-size="14.00" fill="#000000">URL :varchar(255)</text>
<text text-anchor="start" x="1067.0259" y="-1051.3" font-family="Times,serif" font-size="14.00" fill="#000000">DemoURL :varchar(255)</text>
<text text-anchor="start" x="1067.0259" y="-1037.3" font-family="Times,serif" font-size="14.00" fill="#000000">StartDate :date</text>
<text text-anchor="start" x="1067.0259" y="-1023.3" font-family="Times,serif" font-size="14.00" fill="#000000">EndDate :date</text>
<text text-anchor="start" x="1067.0259" y="-1009.3" font-family="Times,serif" font-size="14.00" fill="#000000">ActualEndDate :date</text>
<text text-anchor="start" x="1067.0259" y="-995.3" font-family="Times,serif" font-size="14.00" fill="#000000">Status :int(11)</text>
<text text-anchor="start" x="1067.0259" y="-981.3" font-family="Times,serif" font-size="14.00" fill="#000000">Priority :tinyint(1)</text>
<text text-anchor="start" x="1067.0259" y="-967.3" font-family="Times,serif" font-size="14.00" fill="#000000">Colour :varchar(7)</text>
<text text-anchor="start" x="1067.0259" y="-953.3" font-family="Times,serif" font-size="14.00" fill="#000000">Description :text</text>
<text text-anchor="start" x="1067.0259" y="-939.3" font-family="Times,serif" font-size="14.00" fill="#000000">TargetBudget :int(11)</text>
<text text-anchor="start" x="1067.0259" y="-925.3" font-family="Times,serif" font-size="14.00" fill="#000000">ActualBudget :int(11)</text>
<text text-anchor="start" x="1067.0259" y="-911.3" font-family="Times,serif" font-size="14.00" fill="#000000">Active :tinyint(1)</text>
<text text-anchor="start" x="1067.0259" y="-897.3" font-family="Times,serif" font-size="14.00" fill="#000000">product_id :smallint(6)</text>
<text text-anchor="start" x="1067.0259" y="-883.3" font-family="Times,serif" font-size="14.00" fill="#000000">product_variation_id :smallint(6)</text>
<text text-anchor="start" x="1067.0259" y="-869.3" font-family="Times,serif" font-size="14.00" fill="#000000">category_id :smallint(5) unsigned</text>
<text text-anchor="start" x="1067.0259" y="-855.3" font-family="Times,serif" font-size="14.00" fill="#000000">aka_title :varchar(100)</text>
<text text-anchor="start" x="1067.0259" y="-841.3" font-family="Times,serif" font-size="14.00" fill="#000000">assets_path :varchar(500)</text>
<text text-anchor="start" x="1067.0259" y="-827.3" font-family="Times,serif" font-size="14.00" fill="#000000">poster_url :varchar(500)</text>
<text text-anchor="start" x="1067.0259" y="-813.3" font-family="Times,serif" font-size="14.00" fill="#000000">take_count :int(11)</text>
<text text-anchor="start" x="1067.0259" y="-799.3" font-family="Times,serif" font-size="14.00" fill="#000000">word_count_source :int(11)</text>
<text text-anchor="start" x="1067.0259" y="-785.3" font-family="Times,serif" font-size="14.00" fill="#000000">word_count_localized :int(11)</text>
<text text-anchor="start" x="1067.0259" y="-771.3" font-family="Times,serif" font-size="14.00" fill="#000000">talk_time :float(5,2)</text>
<text text-anchor="start" x="1067.0259" y="-757.3" font-family="Times,serif" font-size="14.00" fill="#000000">structure_created_at :datetime</text>
<text text-anchor="start" x="1067.0259" y="-743.3" font-family="Times,serif" font-size="14.00" fill="#000000">created_at :datetime</text>
<text text-anchor="start" x="1067.0259" y="-729.3" font-family="Times,serif" font-size="14.00" fill="#000000">ID :int(11)</text>
</g>
<!-- Tblproject&#45;&gt;BsagProjectPartial -->
<g id="edge9" class="edge">
<title>Tblproject&#45;&gt;BsagProjectPartial</title>
<path fill="none" stroke="#7e0a76" d="M1161.5054,-714.3038C1161.5054,-703.2723 1161.5054,-692.3518 1161.5054,-681.6734"/>
<ellipse fill="none" stroke="#7e0a76" cx="1161.5054" cy="-718.4091" rx="4" ry="4"/>
<polygon fill="#7e0a76" stroke="#7e0a76" points="1161.5055,-681.5138 1166.0054,-671.5138 1161.5054,-676.5138 1161.5054,-671.5138 1161.5054,-671.5138 1161.5054,-671.5138 1161.5054,-676.5138 1157.0054,-671.5139 1161.5055,-681.5138 1161.5055,-681.5138"/>
<text text-anchor="middle" x="1205.0435" y="-692.8" font-family="Times,serif" font-size="14.00" fill="#000000">project_partials</text>
</g>
</g>
</svg>
