<?xml version="1.0" encoding="UTF-8" standalone="no"?>
<!DOCTYPE svg PUBLIC "-//W3C//DTD SVG 1.1//EN"
 "http://www.w3.org/Graphics/SVG/1.1/DTD/svg11.dtd">
<!-- Generated by graphviz version 2.40.1 (20161225.0304)
 -->
<!-- Title: models_diagram Pages: 1 -->
<svg width="2121pt" height="253pt"
 viewBox="0.00 0.00 2121.11 253.00" xmlns="http://www.w3.org/2000/svg" xmlns:xlink="http://www.w3.org/1999/xlink">
<g id="graph0" class="graph" transform="scale(1 1) rotate(0) translate(4 249)">
<title>models_diagram</title>
<polygon fill="transparent" stroke="transparent" points="-4,4 -4,-249 2117.1121,-249 2117.1121,4 -4,4"/>
<!-- _diagram_info -->
<g id="node1" class="node">
<title>_diagram_info</title>
<text text-anchor="start" x="960.3939" y="-230.6" font-family="Times,serif" font-size="13.00" fill="#000000">Models diagram</text>
<text text-anchor="start" x="960.3939" y="-217.6" font-family="Times,serif" font-size="13.00" fill="#000000">Date: Jul 18 2018 &#45; 14:38</text>
<text text-anchor="start" x="960.3939" y="-204.6" font-family="Times,serif" font-size="13.00" fill="#000000">Migration version: 20180610135203</text>
<text text-anchor="start" x="960.3939" y="-191.6" font-family="Times,serif" font-size="13.00" fill="#000000">Generated by RailRoady 1.5.3</text>
<text text-anchor="start" x="960.3939" y="-178.6" font-family="Times,serif" font-size="13.00" fill="#000000">http://railroady.prestonlee.com</text>
</g>
<!-- BsagAudioFault -->
<g id="node2" class="node">
<title>BsagAudioFault</title>
<ellipse fill="none" stroke="#000000" cx="68.0816" cy="-104" rx="68.1633" ry="18"/>
<text text-anchor="middle" x="68.0816" y="-99.8" font-family="Times,serif" font-size="14.00" fill="#000000">BsagAudioFault</text>
</g>
<!-- BsagMepAudio -->
<g id="node7" class="node">
<title>BsagMepAudio</title>
<ellipse fill="none" stroke="#000000" cx="632.0816" cy="-18" rx="66.2253" ry="18"/>
<text text-anchor="middle" x="632.0816" y="-13.8" font-family="Times,serif" font-size="14.00" fill="#000000">BsagMepAudio</text>
</g>
<!-- BsagAudioFault&#45;&gt;BsagMepAudio -->
<g id="edge1" class="edge">
<title>BsagAudioFault&#45;&gt;BsagMepAudio</title>
<path fill="none" stroke="#9a7cca" d="M127.5754,-90.2637C133.8238,-88.8231 140.0823,-87.3811 146.0816,-86 208.005,-71.7448 222.7422,-64.4124 285.4263,-54 378.7277,-38.5019 487.3327,-28.5081 557.7674,-23.075"/>
<ellipse fill="none" stroke="#9a7cca" cx="123.5842" cy="-91.1841" rx="4" ry="4"/>
<polygon fill="#9a7cca" stroke="#9a7cca" points="557.9049,-23.0647 568.2173,-26.7934 562.8905,-22.6855 567.8761,-22.3064 567.8761,-22.3064 567.8761,-22.3064 562.8905,-22.6855 567.5349,-17.8193 557.9049,-23.0647 557.9049,-23.0647"/>
<text text-anchor="middle" x="319.9092" y="-56.8" font-family="Times,serif" font-size="14.00" fill="#000000">mep_audios</text>
</g>
<!-- BsagAudioFormat -->
<g id="node3" class="node">
<title>BsagAudioFormat</title>
<ellipse fill="none" stroke="#000000" cx="230.0816" cy="-104" rx="75.3966" ry="18"/>
<text text-anchor="middle" x="230.0816" y="-99.8" font-family="Times,serif" font-size="14.00" fill="#000000">BsagAudioFormat</text>
</g>
<!-- BsagAudioFormat&#45;&gt;BsagMepAudio -->
<g id="edge2" class="edge">
<title>BsagAudioFormat&#45;&gt;BsagMepAudio</title>
<path fill="none" stroke="#b182dc" d="M284.243,-87.427C320.0894,-76.8653 368.2704,-63.4414 411.4263,-54 461.5546,-43.0333 518.7542,-33.7927 562.3532,-27.4201"/>
<ellipse fill="none" stroke="#b182dc" cx="280.1642" cy="-88.6352" rx="4" ry="4"/>
<polygon fill="#b182dc" stroke="#b182dc" points="562.3873,-27.4152 572.9285,-30.4373 567.3358,-26.6994 572.2843,-25.9836 572.2843,-25.9836 572.2843,-25.9836 567.3358,-26.6994 571.6401,-21.53 562.3873,-27.4152 562.3873,-27.4152"/>
<text text-anchor="middle" x="445.9092" y="-56.8" font-family="Times,serif" font-size="14.00" fill="#000000">mep_audios</text>
</g>
<!-- BsagAudioSpeed -->
<g id="node4" class="node">
<title>BsagAudioSpeed</title>
<ellipse fill="none" stroke="#000000" cx="395.0816" cy="-104" rx="71.529" ry="18"/>
<text text-anchor="middle" x="395.0816" y="-99.8" font-family="Times,serif" font-size="14.00" fill="#000000">BsagAudioSpeed</text>
</g>
<!-- BsagAudioSpeed&#45;&gt;BsagMepAudio -->
<g id="edge3" class="edge">
<title>BsagAudioSpeed&#45;&gt;BsagMepAudio</title>
<path fill="none" stroke="#50e032" d="M438.4188,-85.044C461.4058,-75.2695 490.2386,-63.4498 516.4263,-54 535.8819,-46.9795 557.4596,-40.0396 576.6571,-34.1546"/>
<ellipse fill="none" stroke="#50e032" cx="434.5378" cy="-86.7022" rx="4" ry="4"/>
<polygon fill="#50e032" stroke="#50e032" points="576.887,-34.0849 587.7632,-35.4843 581.6711,-32.6317 586.4553,-31.1785 586.4553,-31.1785 586.4553,-31.1785 581.6711,-32.6317 585.1474,-26.8728 576.887,-34.0849 576.887,-34.0849"/>
<text text-anchor="middle" x="550.9092" y="-56.8" font-family="Times,serif" font-size="14.00" fill="#000000">mep_audios</text>
</g>
<!-- BsagAudioType -->
<g id="node5" class="node">
<title>BsagAudioType</title>
<ellipse fill="none" stroke="#000000" cx="552.0816" cy="-104" rx="67.411" ry="18"/>
<text text-anchor="middle" x="552.0816" y="-99.8" font-family="Times,serif" font-size="14.00" fill="#000000">BsagAudioType</text>
</g>
<!-- BsagAudioType&#45;&gt;BsagMepAudio -->
<g id="edge4" class="edge">
<title>BsagAudioType&#45;&gt;BsagMepAudio</title>
<path fill="none" stroke="#8ff5a9" d="M574.4423,-79.9622C585.1148,-68.4893 597.8823,-54.7643 608.6853,-43.1511"/>
<ellipse fill="none" stroke="#8ff5a9" cx="571.3821" cy="-83.252" rx="4" ry="4"/>
<polygon fill="#8ff5a9" stroke="#8ff5a9" points="608.9894,-42.8241 619.0954,-38.5672 612.395,-39.1631 615.8005,-35.5022 615.8005,-35.5022 615.8005,-35.5022 612.395,-39.1631 612.5057,-32.4372 608.9894,-42.8241 608.9894,-42.8241"/>
<text text-anchor="middle" x="630.9092" y="-56.8" font-family="Times,serif" font-size="14.00" fill="#000000">mep_audios</text>
</g>
<!-- BsagChannelError -->
<g id="node6" class="node">
<title>BsagChannelError</title>
<ellipse fill="none" stroke="#000000" cx="713.0816" cy="-104" rx="75.8466" ry="18"/>
<text text-anchor="middle" x="713.0816" y="-99.8" font-family="Times,serif" font-size="14.00" fill="#000000">BsagChannelError</text>
</g>
<!-- BsagChannelError&#45;&gt;BsagMepAudio -->
<g id="edge5" class="edge">
<title>BsagChannelError&#45;&gt;BsagMepAudio</title>
<path fill="none" stroke="#d52514" d="M692.5936,-79.9609C685.3071,-71.6159 676.9562,-62.2788 669.0816,-54 665.4682,-50.201 661.574,-46.2584 657.7162,-42.4362"/>
<ellipse fill="none" stroke="#d52514" cx="695.3112" cy="-83.0935" rx="4" ry="4"/>
<polygon fill="#d52514" stroke="#d52514" points="657.5738,-42.2968 653.5725,-32.087 653.9997,-38.8002 650.4256,-35.3036 650.4256,-35.3036 650.4256,-35.3036 653.9997,-38.8002 647.2787,-38.5203 657.5738,-42.2968 657.5738,-42.2968"/>
<text text-anchor="middle" x="715.9092" y="-56.8" font-family="Times,serif" font-size="14.00" fill="#000000">mep_audios</text>
</g>
<!-- BsagMepEvaluation -->
<g id="node8" class="node">
<title>BsagMepEvaluation</title>
<ellipse fill="none" stroke="#000000" cx="889.0816" cy="-104" rx="82.1286" ry="18"/>
<text text-anchor="middle" x="889.0816" y="-99.8" font-family="Times,serif" font-size="14.00" fill="#000000">BsagMepEvaluation</text>
</g>
<!-- BsagMepEvaluation&#45;&gt;BsagMepAudio -->
<g id="edge6" class="edge">
<title>BsagMepEvaluation&#45;&gt;BsagMepAudio</title>
<path fill="none" stroke="#7bcf29" d="M841.1239,-85.3374C815.4526,-75.5762 783.2067,-63.6783 754.0816,-54 732.6432,-46.876 708.8571,-39.6969 688.023,-33.6444"/>
<ellipse fill="none" stroke="#7bcf29" cx="845.132" cy="-86.867" rx="4" ry="4"/>
<polygon fill="#7bcf29" stroke="#7bcf29" points="687.9756,-33.6308 679.6153,-26.5346 683.1716,-32.2445 678.3676,-30.8582 678.3676,-30.8582 678.3676,-30.8582 683.1716,-32.2445 677.12,-35.1818 687.9756,-33.6308 687.9756,-33.6308"/>
<text text-anchor="middle" x="824.9092" y="-56.8" font-family="Times,serif" font-size="14.00" fill="#000000">mep_audios</text>
</g>
<!-- BsagMepVersion -->
<g id="node9" class="node">
<title>BsagMepVersion</title>
<ellipse fill="none" stroke="#000000" cx="1060.0816" cy="-104" rx="71.0445" ry="18"/>
<text text-anchor="middle" x="1060.0816" y="-99.8" font-family="Times,serif" font-size="14.00" fill="#000000">BsagMepVersion</text>
</g>
<!-- BsagMepVersion&#45;&gt;BsagMepAudio -->
<g id="edge7" class="edge">
<title>BsagMepVersion&#45;&gt;BsagMepAudio</title>
<path fill="none" stroke="#029cc7" d="M1004.0533,-88.2852C964.8042,-77.6447 911.0108,-63.7946 863.0816,-54 809.4746,-43.0451 748.2711,-33.6452 702.3359,-27.2002"/>
<ellipse fill="none" stroke="#029cc7" cx="1008.3412" cy="-89.4531" rx="4" ry="4"/>
<polygon fill="#029cc7" stroke="#029cc7" points="702.0903,-27.1661 692.8052,-21.3321 697.1379,-26.4777 692.1856,-25.7892 692.1856,-25.7892 692.1856,-25.7892 697.1379,-26.4777 691.5659,-30.2463 702.0903,-27.1661 702.0903,-27.1661"/>
<text text-anchor="middle" x="955.9092" y="-56.8" font-family="Times,serif" font-size="14.00" fill="#000000">mep_audios</text>
</g>
<!-- BsagProduct -->
<g id="node10" class="node">
<title>BsagProduct</title>
<ellipse fill="none" stroke="#000000" cx="1345.0816" cy="-208.5" rx="55.1094" ry="18"/>
<text text-anchor="middle" x="1345.0816" y="-204.3" font-family="Times,serif" font-size="14.00" fill="#000000">BsagProduct</text>
</g>
<!-- BsagProductCategory -->
<g id="node11" class="node">
<title>BsagProductCategory</title>
<ellipse fill="none" stroke="#000000" cx="1506.0816" cy="-208.5" rx="87.9412" ry="18"/>
<text text-anchor="middle" x="1506.0816" y="-204.3" font-family="Times,serif" font-size="14.00" fill="#000000">BsagProductCategory</text>
</g>
<!-- BsagProductVariation -->
<g id="node12" class="node">
<title>BsagProductVariation</title>
<ellipse fill="none" stroke="#000000" cx="1699.0816" cy="-208.5" rx="87.9412" ry="18"/>
<text text-anchor="middle" x="1699.0816" y="-204.3" font-family="Times,serif" font-size="14.00" fill="#000000">BsagProductVariation</text>
</g>
<!-- BsagProjectPartial -->
<g id="node13" class="node">
<title>BsagProjectPartial</title>
<ellipse fill="none" stroke="#000000" cx="1225.0816" cy="-104" rx="75.8553" ry="18"/>
<text text-anchor="middle" x="1225.0816" y="-99.8" font-family="Times,serif" font-size="14.00" fill="#000000">BsagProjectPartial</text>
</g>
<!-- BsagProjectPartial&#45;&gt;BsagMepAudio -->
<g id="edge8" class="edge">
<title>BsagProjectPartial&#45;&gt;BsagMepAudio</title>
<path fill="none" stroke="#00a10d" d="M1164.7961,-88.9763C1118.3903,-77.8929 1052.515,-63.1988 994.0816,-54 895.1684,-38.4288 779.9282,-28.3368 706.5214,-22.9096"/>
<ellipse fill="none" stroke="#00a10d" cx="1168.7599" cy="-89.9279" rx="4" ry="4"/>
<polygon fill="#00a10d" stroke="#00a10d" points="706.4205,-22.9023 696.7745,-17.6866 701.4338,-22.5385 696.4471,-22.1747 696.4471,-22.1747 696.4471,-22.1747 701.4338,-22.5385 696.1196,-26.6627 706.4205,-22.9023 706.4205,-22.9023"/>
<text text-anchor="middle" x="1097.9092" y="-56.8" font-family="Times,serif" font-size="14.00" fill="#000000">mep_audios</text>
</g>
<!-- BsagProjectPartialVersion -->
<g id="node14" class="node">
<title>BsagProjectPartialVersion</title>
<ellipse fill="none" stroke="#000000" cx="1908.0816" cy="-208.5" rx="102.8919" ry="18"/>
<text text-anchor="middle" x="1908.0816" y="-204.3" font-family="Times,serif" font-size="14.00" fill="#000000">BsagProjectPartialVersion</text>
</g>
<!-- Tblclient -->
<g id="node15" class="node">
<title>Tblclient</title>
<ellipse fill="none" stroke="#000000" cx="2071.0816" cy="-208.5" rx="42.0611" ry="18"/>
<text text-anchor="middle" x="2071.0816" y="-204.3" font-family="Times,serif" font-size="14.00" fill="#000000">Tblclient</text>
</g>
<!-- Tblproject -->
<g id="node16" class="node">
<title>Tblproject</title>
<ellipse fill="none" stroke="#000000" cx="1225.0816" cy="-208.5" rx="46.8805" ry="18"/>
<text text-anchor="middle" x="1225.0816" y="-204.3" font-family="Times,serif" font-size="14.00" fill="#000000">Tblproject</text>
</g>
<!-- Tblproject&#45;&gt;BsagProjectPartial -->
<g id="edge9" class="edge">
<title>Tblproject&#45;&gt;BsagProjectPartial</title>
<path fill="none" stroke="#c13f19" d="M1225.0816,-182.1853C1225.0816,-167.0145 1225.0816,-147.9357 1225.0816,-132.4227"/>
<ellipse fill="none" stroke="#c13f19" cx="1225.0817" cy="-186.2975" rx="4" ry="4"/>
<polygon fill="#c13f19" stroke="#c13f19" points="1225.0817,-132.3445 1229.5816,-122.3445 1225.0817,-127.3445 1225.0816,-122.3445 1225.0816,-122.3445 1225.0816,-122.3445 1225.0817,-127.3445 1220.5816,-122.3446 1225.0817,-132.3445 1225.0817,-132.3445"/>
<text text-anchor="middle" x="1268.6197" y="-142.8" font-family="Times,serif" font-size="14.00" fill="#000000">project_partials</text>
</g>
</g>
</svg>
